<?xml version="1.0" standalone="no"?>
<!DOCTYPE svg PUBLIC "-//W3C//DTD SVG 20010904//EN"
 "http://www.w3.org/TR/2001/REC-SVG-20010904/DTD/svg10.dtd">
<svg version="1.0" xmlns="http://www.w3.org/2000/svg"
 width="192.000000pt" height="192.000000pt" viewBox="0 0 192.000000 192.000000"
 preserveAspectRatio="xMidYMid meet">
<metadata>
Created by potrace 1.11, written by Peter Selinger 2001-2013
</metadata>
<g transform="translate(0.000000,192.000000) scale(0.100000,-0.100000)"
fill="#000000" stroke="none">
<path d="M855 1755 c-5 -2 -44 -11 -85 -20 -354 -81 -608 -405 -608 -775 0
-394 277 -719 671 -789 111 -20 315 0 402 38 11 5 42 19 70 31 108 48 223 144
305 255 149 202 188 488 101 739 -66 189 -214 353 -401 444 -110 54 -191 73
-325 77 -66 1 -124 1 -130 0z m577 -332 c-5 -10 -19 -38 -30 -63 -11 -25 -38
-83 -60 -130 -21 -47 -54 -116 -72 -155 -18 -38 -56 -120 -84 -180 l-53 -110
-89 -42 c-49 -23 -147 -69 -218 -102 -70 -34 -130 -61 -132 -61 -3 0 -187 -86
-206 -97 -7 -4 32 89 52 124 5 10 59 126 119 258 60 132 120 250 133 263 13
13 127 71 253 129 127 58 266 122 310 144 44 21 81 39 83 39 1 0 -1 -8 -6 -17z"/>
<path d="M922 1040 c-12 -5 -29 -25 -38 -43 -46 -97 91 -174 147 -84 46 75
-28 161 -109 127z"/>
</g>
</svg>
